<svg xmlns="http://www.w3.org/2000/svg" preserveAspectRatio="xMidYMid" width="60" height="54" viewBox="0 0 60 54"><defs><style>.cls-2{fill:#ffc000}</style></defs><path d="M57.86 2.05a6.942 6.942 0 0 0-4.944-2.052 6.94 6.94 0 0 0-4.944 2.052l-2.861 2.864L23.066 29.37l-4.021 4.461v.001l-5.613 6.226a6.636 6.636 0 0 0-.852-.059h-.415c-2.159 0-6.178 0-6.178 4.916 0 4.943-5.16 7.065-5.378 7.153a1.001 1.001 0 0 0 .368 1.931h12.422c1.804 0 3.192-.482 4.125-1.431 1.389-1.415 1.465-3.468 1.444-5.221.059-.035.121-.06.174-.106l6.983-6.317.003-.003 4.453-4.026.002-.002 24.451-22.117 2.826-2.828a6.962 6.962 0 0 0 2.047-4.95A6.955 6.955 0 0 0 57.86 2.05zM25.493 38.8l-4.33-4.335 2.681-2.973 4.617 4.624-2.968 2.684zm-9.394 12.365c-.543.553-1.452.834-2.701.834h-8.92c1.721-1.44 3.507-3.74 3.507-7.084 0-2.629 1.339-2.917 4.181-2.917h.415c.341 0 .668.043.985.112.007.001.014.005.021.008.442.096.848.261 1.221.469.034.02.072.034.106.055.153.091.292.197.431.306.054.042.11.083.162.128.133.116.258.24.374.369.038.043.075.087.111.133.121.147.236.299.336.46l.021.038a4.14 4.14 0 0 1 .584 1.93c0 .009.005.016.006.024.002.065.018.125.018.191 0 .23.004.471.008.719.025 1.542.054 3.29-.866 4.225zm2.703-6.312a6.129 6.129 0 0 0-3.254-4.157l4.276-4.743 4.186 4.191-5.208 4.709zm37.645-34.32l-2.788 2.795-23.712 21.446-4.763-4.768L46.559 6.291l2.826-2.828a4.964 4.964 0 0 1 3.532-1.465c1.334 0 2.588.522 3.531 1.465a4.968 4.968 0 0 1 1.463 3.535 4.97 4.97 0 0 1-1.464 3.535z" id="path-1" class="cls-2" fill-rule="evenodd"/></svg>