<svg xmlns="http://www.w3.org/2000/svg" preserveAspectRatio="xMidYMid" width="56" height="56" viewBox="0 0 56 56"><defs><style>.cls-2{fill:#ffc000}</style></defs><path d="M47.533-.002H8.467C3.798-.002 0 3.797 0 8.465v39.067c0 4.668 3.798 8.466 8.467 8.466h39.066c4.669 0 8.467-3.798 8.467-8.466V8.465c0-4.668-3.798-8.467-8.467-8.467zM54 47.532a6.475 6.475 0 0 1-6.467 6.467H8.467A6.475 6.475 0 0 1 2 47.532V30.413l6.247-6.247a4.969 4.969 0 0 0 5.506 0l10.08 10.079A4.971 4.971 0 0 0 23 36.998c0 2.757 2.243 5 5 5s5-2.243 5-5a4.971 4.971 0 0 0-.833-2.753L46 20.413v6.585a1 1 0 1 0 2 0v-10H38a1 1 0 1 0 0 2.001h6.586L30.753 32.831a4.969 4.969 0 0 0-5.506 0l-10.08-10.08c.524-.79.833-1.736.833-2.752a5.006 5.006 0 0 0-5-5.001c-2.757 0-5 2.243-5 5.001 0 1.016.309 1.962.833 2.752L2 27.584V8.465a6.474 6.474 0 0 1 6.467-6.467h39.066A6.474 6.474 0 0 1 54 8.465v39.067zM11 22.998c-1.654 0-3-1.345-3-2.999a3.004 3.004 0 0 1 3-3.001c1.654 0 3 1.346 3 3.001a3.003 3.003 0 0 1-3 2.999zm20 14c0 1.654-1.346 3-3 3s-3-1.346-3-3c0-1.653 1.346-3 3-3s3 1.347 3 3z" id="path-1" class="cls-2" fill-rule="evenodd"/></svg>