<svg xmlns="http://www.w3.org/2000/svg" preserveAspectRatio="xMidYMid" width="60" height="51" viewBox="0 0 60 51"><defs><style>.cls-2{fill:#ffc000}</style></defs><path d="M47.972 39.998H44a.998.998 0 1 1 0-1.999h3.972C53.501 37.999 58 33.5 58 27.97c0-4.81-3.51-9.1-8.166-9.984-.136-.019-2.457-.335-4.684.002a.999.999 0 0 1-1.138-.839 1 1 0 0 1 .838-1.139c1.531-.232 3.062-.196 4.083-.124-.671-7.753-7.104-13.888-14.849-13.888-4.696 0-9.417 2.38-12.284 6.13a8.976 8.976 0 0 1 3.2 6.87 1 1 0 1 1-2 0 6.997 6.997 0 0 0-3.91-6.271c-.07-.034-.139-.069-.21-.101a6.978 6.978 0 0 0-.835-.321c-.035-.01-.071-.017-.106-.027a6.814 6.814 0 0 0-.789-.176c-.077-.013-.155-.027-.233-.036A6.827 6.827 0 0 0 16 7.998c-3.859 0-7 3.141-7 7 0 .087.007.172.013.256l.013.195-.011.184c-.007.124-.015.245-.015.365v.631l-.567.271C4.705 18.686 2 22.998 2 27.152c0 5.982 4.865 10.847 10.845 10.847H18a.998.998 0 1 1 0 1.999h-5.155C5.762 39.998 0 34.235 0 27.152c0-4.755 2.857-9.506 7.017-11.773A5.315 5.315 0 0 1 7 14.998c0-4.963 4.037-8.999 9-8.999.341 0 .677.023 1.009.06.102.011.201.031.302.045.232.035.462.075.687.125.116.027.23.059.345.089a10.34 10.34 0 0 1 .962.318c.205.082.406.172.604.269.076.036.155.063.23.101 3.257-4.344 8.515-7.008 13.945-7.008 8.945 0 16.364 7.194 16.892 16.194C56.173 17.559 60 22.481 60 27.97c0 6.633-5.396 12.028-12.028 12.028zm-24.265 1.293L30 47.584V26.998a1 1 0 1 1 2 0v20.586l6.293-6.293a1 1 0 0 1 1.414 1.414l-7.999 7.999a.99.99 0 0 1-.326.217.974.974 0 0 1-.764 0 .99.99 0 0 1-.326-.217l-7.999-7.999a.999.999 0 1 1 1.414-1.414z" id="path-1" class="cls-2" fill-rule="evenodd"/></svg>