<svg xmlns="http://www.w3.org/2000/svg" preserveAspectRatio="xMidYMid" width="60" height="60" viewBox="0 0 60 60"><defs><style>.cls-2{fill:#ffc000}</style></defs><path d="M54 33.999a5.963 5.963 0 0 1-4.023-1.563l-8.703 8.703c.463.851.726 1.824.726 2.86 0 3.309-2.691 6-6 6s-6-2.691-6-6a5.97 5.97 0 0 1 1.562-4.024l-4.538-4.538a5.962 5.962 0 0 1-8.047-.001l-3.526 3.526a5.97 5.97 0 0 1 1.562 4.024c0 3.309-2.691 6-6 6a6.007 6.007 0 0 1-6.001-5.999c0-3.309 2.691-6 6-6 1.035 0 2.009.263 2.86.725l3.854-3.853a5.966 5.966 0 0 1-.726-2.86c0-3.309 2.691-6 6-6s6 2.691 6 6a5.941 5.941 0 0 1-.727 2.858l4.867 4.868a5.966 5.966 0 0 1 6.883.837l8.703-8.704A5.962 5.962 0 0 1 48 27.999c0-3.309 2.691-6 6-6s6 2.691 6 6c0 3.308-2.691 6-6 6zm-42.987 4.987c-2.206 0-4 1.793-4 4a4.003 4.003 0 0 0 4 3.999c2.206 0 4-1.793 4-3.999 0-2.207-1.794-4-4-4zM23 26.998c-2.206 0-4 1.794-4 4.001a4.003 4.003 0 0 0 4 3.999c2.206 0 4-1.793 4-3.999a4.004 4.004 0 0 0-4-4.001zm13 13c-2.206 0-4 1.795-4 4.001a4.003 4.003 0 0 0 4 3.999c2.206 0 4-1.793 4-3.999a4.005 4.005 0 0 0-4-4.001zm18-16c-2.206 0-4 1.794-4 4.001a4.003 4.003 0 0 0 4 3.999c2.206 0 4-1.793 4-3.999a4.004 4.004 0 0 0-4-4.001zM9 28.999H7a1 1 0 1 1 0-2.001h2a1 1 0 1 1 0 2.001zm0-4H7a1 1 0 1 1 0-2h2a.999.999 0 1 1 0 2zm0-4H7a1 1 0 1 1 0-2.001h2a1 1 0 1 1 0 2.001zm0-4H7a1 1 0 1 1 0-2h2a1 1 0 1 1 0 2zm0-4.001H7a1 1 0 1 1 0-2h2a1 1 0 1 1 0 2zm0-3.999H7a1 1 0 1 1 0-2.001h2a1 1 0 1 1 0 2.001zm0-4.001H7a.998.998 0 1 1 0-1.999h2a.998.998 0 1 1 0 1.999zm51 52.001a1 1 0 0 1-1 1H4v.999a1 1 0 1 1-2 0v-.999H1a1 1 0 1 1 0-2h1v-55a1 1 0 1 1 2 0v55h55a1 1 0 0 1 1 1z" id="path-1" class="cls-2" fill-rule="evenodd"/></svg>