<svg xmlns="http://www.w3.org/2000/svg" preserveAspectRatio="xMidYMid" width="57" height="58" viewBox="0 0 57 58"><defs><style>.cls-2{fill:#ffc000}</style></defs><path d="M31.5 57.999a22.43 22.43 0 0 1-3.015-.211 22.224 22.224 0 0 1-2.985.211c-5.4 0-10.41-1.925-14.537-5.195-.063-.043-.125-.085-.176-.142a27.301 27.301 0 0 1-4.738-4.94c-.046-.043-.076-.097-.113-.148a29.87 29.87 0 0 1-3.514-6.256C.871 37.576 0 33.402 0 28.999c0-2.815.361-5.535 1.022-8.11a.994.994 0 0 1 .078-.311 31.26 31.26 0 0 1 1.759-4.896.931.931 0 0 1 .07-.154A29.405 29.405 0 0 1 6.72 9.406c.038-.051.073-.101.12-.144a26.732 26.732 0 0 1 5.326-4.97l.004-.004c3.881-2.718 8.447-4.29 13.33-4.29.972 0 1.953.073 2.985.211A22.43 22.43 0 0 1 31.5-.002c14.061 0 25.5 13.01 25.5 29.001 0 15.991-11.439 29-25.5 29zm-10.247-2.442c-.113-.056-.221-.124-.335-.184a21.123 21.123 0 0 1-.943-.518c-.189-.108-.379-.214-.566-.329a24.69 24.69 0 0 1-1.187-.778c-.217-.151-.428-.311-.641-.468-.126-.094-.254-.186-.379-.281h-2.419c2.01 1.189 4.177 2.076 6.47 2.558zm-9.358-4.558h3.008c-.082-.08-.16-.168-.241-.249a29.896 29.896 0 0 1-.58-.6 24.279 24.279 0 0 1-1.485-1.709c-.116-.145-.228-.295-.341-.442H8.824a24.834 24.834 0 0 0 3.071 3zm-4.622-5.001h3.587a26.26 26.26 0 0 1-.549-.885c-.083-.142-.162-.287-.243-.431a29.526 29.526 0 0 1-.642-1.193c-.074-.145-.15-.29-.222-.439a29.653 29.653 0 0 1-.488-1.051H4.928a27.574 27.574 0 0 0 2.345 3.999zm-3.215-6h3.854c-.039-.109-.076-.219-.114-.329-.043-.123-.087-.245-.128-.368a31.815 31.815 0 0 1-.549-1.802l-.033-.13c-.033-.123-.062-.247-.093-.37v-.001h-3.92c.278 1.027.604 2.028.983 3zm-1.45-5h3.944a32.86 32.86 0 0 1-.265-1.652l-.01-.093a32.036 32.036 0 0 1-.141-1.254H2.16c.099 1.019.253 2.018.448 2.999zM2 28.999c0 .337.028.666.039.999h3.983c-.01-.333-.022-.664-.022-.999 0-.657.026-1.306.063-1.952l.002-.048H2.078a31.446 31.446 0 0 0-.078 2zm.807-7.001a30.306 30.306 0 0 0-.528 3h3.969c.011-.084.018-.169.029-.255l.01-.091a31.982 31.982 0 0 1 .396-2.295c.025-.119.047-.24.073-.359H2.807zm.55-1.999h3.906c.127-.439.261-.873.406-1.303l.128-.369c.156-.447.322-.89.498-1.329H4.468a28.92 28.92 0 0 0-1.111 3.001zm4.668-9.001a27.277 27.277 0 0 0-2.596 4.001h3.749l.026-.054c.072-.148.148-.293.222-.439.206-.402.42-.8.642-1.192.081-.143.16-.288.243-.43.273-.463.559-.916.854-1.36.118-.177.241-.35.363-.526H8.025zm5.206-4.999a24.228 24.228 0 0 0-3.472 2.999h3.302c.155-.184.307-.371.466-.551.181-.204.368-.4.554-.6.19-.204.384-.403.58-.599.198-.198.395-.397.598-.589.241-.227.488-.444.735-.66h-2.763zm3.443-2.001H18.6c.268-.179.536-.358.81-.527.186-.113.377-.22.566-.329.311-.18.625-.352.943-.518.113-.059.221-.127.334-.185-1.591.335-3.117.876-4.579 1.559zM31.5 1.999c-.794 0-1.579.047-2.354.136l-.397.055a20.908 20.908 0 0 0-1.183.194l-.074.015c-.335.065-.667.139-.996.22-.043.011-.086.025-.13.036-.309.078-.616.163-.92.256-.081.025-.162.054-.243.079-.264.084-.528.171-.789.266-.184.067-.366.142-.549.214-.156.061-.313.118-.467.184-5.375 2.275-9.834 6.746-12.546 12.463-.025.052-.047.105-.071.157a27 27 0 0 0-.423.948c-.053.125-.102.251-.153.378-.102.25-.203.5-.298.755-.061.161-.117.323-.175.487-.08.223-.158.448-.232.674-.06.182-.116.367-.175.548a27.686 27.686 0 0 0-.641 2.47c-.045.213-.088.428-.129.642-.039.205-.078.408-.113.614a38.88 38.88 0 0 0-.104.671c-.029.202-.06.403-.086.605-.03.239-.055.482-.08.725-.02.189-.042.376-.058.567-.024.277-.04.559-.056.839-.009.156-.022.313-.029.472a29.172 29.172 0 0 0 .002 2.657c.007.158.02.313.029.471.016.281.032.562.056.839.016.191.038.378.058.568.025.242.049.485.08.725.026.203.056.403.086.604.033.224.066.449.104.671.035.205.074.41.113.613a25.2 25.2 0 0 0 .266 1.251 25.589 25.589 0 0 0 .315 1.222 36.035 36.035 0 0 0 .362 1.192c.075.226.153.45.232.674.058.163.115.326.175.487.096.254.196.505.298.754.051.127.1.254.153.378.135.32.277.636.423.949l.071.156c2.712 5.716 7.17 10.188 12.546 12.463.154.066.311.124.467.185.182.072.364.147.549.213.26.096.524.182.789.266.081.025.161.055.243.08.304.093.611.177.92.256l.13.035a20.509 20.509 0 0 0 2.106.409c.049.005.098.014.147.02l.397.056c.775.089 1.56.136 2.354.136 12.958 0 23.5-12.113 23.5-27 0-14.888-10.542-27-23.5-27zm19.757 28.993a1 1 0 1 1-1.994-.154c.047-.604.07-1.222.07-1.839 0-.554.447-1.032 1-1.032.553 0 1 .416 1 .967v.064c0 .669-.025 1.34-.076 1.994zm-1.409-6.974a1 1 0 0 1-1.213-.727 22.707 22.707 0 0 0-.54-1.819 1 1 0 0 1 1.893-.65c.223.65.42 1.317.587 1.982a1.001 1.001 0 0 1-.727 1.214zm-.447 11.763a.999.999 0 0 1 .627 1.267c-.22.651-.47 1.301-.743 1.929a.999.999 0 1 1-1.834-.797 22.53 22.53 0 0 0 .683-1.77 1.003 1.003 0 0 1 1.267-.629zm-2.997-18.945a.997.997 0 0 1-.829-.438 20.379 20.379 0 0 0-1.131-1.513 1.002 1.002 0 0 1 .137-1.408 1.002 1.002 0 0 1 1.408.137c.437.531.855 1.091 1.242 1.662a1 1 0 0 1-.827 1.56zm-.477 26.04a1 1 0 0 1 .145 1.407 22.17 22.17 0 0 1-1.386 1.545 1 1 0 1 1-1.424-1.406c.439-.444.862-.915 1.259-1.404.349-.426.977-.49 1.406-.142zm-5.118-31.589a.992.992 0 0 1-.545-.164 16.662 16.662 0 0 0-1.62-.932 1 1 0 0 1-.442-1.343.999.999 0 0 1 1.343-.444 19.13 19.13 0 0 1 1.812 1.044 1.001 1.001 0 1 1-.548 1.839zM39.5 17.416v6.169c0 .6-.388.988-.988.988s-.987-.388-.987-.988v-2.081c-1.114-1.233-2.085-2.2-3.739-2.877a6.504 6.504 0 0 0-1.291-.397v8.937c.307.082.816.214 1.526.401a17.52 17.52 0 0 1 3.375 1.236c1.051.52 1.876 1.175 2.452 1.953.593.8.894 1.762.894 2.862 0 2.093-.748 3.786-2.224 5.026-1.412 1.188-3.437 1.806-6.023 1.837v1.287c0 .599-.388.987-.987.987s-.987-.387-.987-.987v-1.406c-2.051-.281-3.32-.619-5.047-2.005v1.316c0 .599-.387.987-.987.987s-.987-.386-.987-.987v-6.168c0-.6.389-.987.988-.987s.987.387.987.987v2.242c1.055 1.146 1.844 1.566 3.615 2.242.432.163.912.291 1.432.379v-9.563c-1.915-.531-3.365-1.039-4.316-1.509-1.052-.519-1.877-1.177-2.453-1.952-.593-.798-.894-1.729-.894-2.767 0-1.956.656-3.543 1.949-4.72 1.231-1.119 3.152-1.707 5.713-1.75v-1.289c0-.599.387-.987.987-.987s.987.387.987.987v1.428c1.815.337 3.37.965 4.629 1.867.327.233.173.439.402.618v-1.316c0-.598.388-.986.987-.986s.987.387.987.986zm-1.625 20.463c.127-.108.247-.217.359-.33a5.884 5.884 0 0 1-.414.367c.017-.013.038-.023.055-.037zm-5.379.628c2.023-.028 3.59-.477 4.658-1.334 1.086-.87 1.615-1.97 1.615-3.36 0-.729-.222-1.345-.678-1.886A4.959 4.959 0 0 0 36.32 30.6c-.743-.335-1.5-.61-2.25-.818l-1.574-.439v9.164zm-1.974-20.426c-1.92.04-3.356.456-4.272 1.241-.953.816-1.416 1.786-1.416 2.965 0 .73.221 1.346.677 1.885a4.95 4.95 0 0 0 1.771 1.328c.742.335 1.451.598 2.107.787.41.117.788.227 1.132.329h.001v-8.535zm2.913-9.494a.94.94 0 0 1-.117-.007 15.74 15.74 0 0 0-1.818-.105c-.553 0-1.021-.447-1.022-1.001a.98.98 0 0 1 .979-.999v.999l.013-.999h.012c.71 0 1.395.04 2.068.119a1 1 0 0 1-.115 1.993zm-7.444.887c-.576.214-1.151.469-1.709.752a1 1 0 0 1-.908-1.781c.625-.319 1.27-.602 1.916-.845a1 1 0 0 1 .701 1.874zm-1.233 39.659a1 1 0 0 1-1.344.44 19.195 19.195 0 0 1-1.81-1.048 1.001 1.001 0 0 1 1.096-1.674c.521.343 1.066.659 1.618.939.494.25.69.852.44 1.343zm-6.253-34.185a.994.994 0 0 1-1.407.142 1 1 0 0 1-.142-1.407c.44-.538.908-1.058 1.39-1.544a.998.998 0 0 1 1.414-.005.998.998 0 0 1 .006 1.413c-.438.441-.862.913-1.261 1.401zm-1.103 26.618c.358.527.738 1.038 1.128 1.515a1.001 1.001 0 0 1-1.547 1.269 23.315 23.315 0 0 1-1.238-1.664 1 1 0 1 1 1.657-1.12zM14.879 21.55a1 1 0 1 1-1.894-.643c.222-.655.474-1.303.748-1.929a1.001 1.001 0 0 1 1.832.804 21.49 21.49 0 0 0-.686 1.768zm-1.138 5.568a24.154 24.154 0 0 0-.074 1.881c0 .552-.447 1.009-1 1.009a.99.99 0 0 1-1-.989v-.021c0-.676.027-1.361.08-2.037.043-.55.531-.954 1.075-.918a1 1 0 0 1 .919 1.075zm-.598 6.819a1.003 1.003 0 0 1 1.212.73c.153.612.332 1.224.536 1.818a1.001 1.001 0 0 1-.946 1.325 1 1 0 0 1-.946-.677 24.476 24.476 0 0 1-.585-1.983 1.002 1.002 0 0 1 .729-1.213zm16.5 15.476c.61.073 1.236.109 1.857.109.553 0 1.043.45 1.043 1.002s-.405 1-.958 1h-.084c-.7 0-1.406-.043-2.096-.124a1 1 0 1 1 .238-1.987zm7.403-.903a16.562 16.562 0 0 0 1.706-.757 1 1 0 1 1 .915 1.779c-.622.319-1.267.605-1.915.848a.999.999 0 0 1-1.289-.582.998.998 0 0 1 .583-1.288z" id="path-1" class="cls-2" fill-rule="evenodd"/></svg>