<svg xmlns="http://www.w3.org/2000/svg" preserveAspectRatio="xMidYMid" width="60" height="60" viewBox="0 0 60 60"><defs><style>.cls-2{fill:#ffc000}</style></defs><path d="M58.969 31.004a1 1 0 0 1-1-1c0-15.442-12.561-28.005-28-28.005A27.835 27.835 0 0 0 12.667 8h5.302a1 1 0 1 1 0 2h-7.917a.994.994 0 0 1-.189 0H8.97V.999a1 1 0 1 1 2 0V6.81A29.813 29.813 0 0 1 29.969-.001c16.542 0 30 13.461 30 30.005a1 1 0 0 1-1 1zM29.968 8c12.131 0 22 9.871 22 22.004 0 12.133-9.869 22.003-22 22.003-12.13 0-21.999-9.87-21.999-22.003C7.969 17.871 17.837 8 29.968 8zm0 42.007c11.028 0 20-8.974 20-20.003 0-11.03-8.972-20.004-20-20.004-11.027 0-20 8.974-20 20.004 0 11.029 8.972 20.003 20 20.003zm-16-19.003h-2a1.001 1.001 0 0 1 0-2h2a1 1 0 1 1 0 2zm12.567.019a3.95 3.95 0 0 1-.567-2.019c0-1.86 1.28-3.413 3-3.859v-5.143a1 1 0 1 1 2 0v5.143c1.72.446 3 1.999 3 3.859 0 2.206-1.794 4-4 4a3.96 3.96 0 0 1-2.019-.567l-8.274 8.275a.997.997 0 0 1-1.414 0 .999.999 0 0 1 0-1.414l8.274-8.275zm3.433-.019c1.103 0 2-.898 2-2a2.002 2.002 0 0 0-2-2.001c-1.103 0-2 .897-2 2.001 0 1.102.897 2 2 2zm0 14.003c.553 0 1 .446 1 .999v2.001a1 1 0 1 1-2 0v-2.001a.999.999 0 0 1 1-.999zm0-30.006a1 1 0 0 1-1-1v-2a1 1 0 1 1 2 0v2a1 1 0 0 1-1 1zm16 14.003h2a1 1 0 1 1 0 2h-2a1 1 0 0 1 0-2zM7.669 48.547c-.19.14-.4.209-.62.209a.995.995 0 0 1-.79-.39.992.992 0 0 1 .18-1.399.993.993 0 0 1 1.4.179c.34.43.26 1.06-.17 1.401zm-1.8-2.4c-.17.1-.35.15-.53.15-.33 0-.66-.169-.85-.471-.29-.47-.15-1.079.32-1.38.47-.29 1.09-.149 1.38.32.29.469.15 1.091-.32 1.381zm-1.55-2.572a.953.953 0 0 1-.43.101 1 1 0 1 1 .43-.101zm-1.26-2.721c-.12.04-.23.06-.35.06-.4 0-.79-.25-.93-.66a.995.995 0 1 1 1.87-.68.992.992 0 0 1-.59 1.28zm-.98-2.829a1.003 1.003 0 0 1-1.21-.73.989.989 0 0 1 .72-1.21c.54-.141 1.08.19 1.22.72.13.54-.2 1.08-.73 1.22zm-.68-2.93a.55.55 0 0 1-.14.008 1 1 0 1 1 .99-1.139.996.996 0 0 1-.85 1.131zm-.37-2.971h-.04c-.53 0-.98-.431-1-.96a.998.998 0 0 1 .96-1.041c.55-.02 1.02.411 1.04.961.02.55-.41 1.019-.96 1.04zm8.7 17.214a.987.987 0 0 1-.03 1.41.97.97 0 0 1-.69.279.97.97 0 0 1-.72-.31.997.997 0 1 1 1.44-1.379zm2.109 1.989c.42.36.47.989.11 1.409-.199.231-.48.351-.76.351a.998.998 0 0 1-.759-1.649.997.997 0 0 1 1.409-.111zm2.3 1.76c.45.311.57.94.25 1.391-.19.28-.5.43-.82.43-.2 0-.39-.051-.57-.17a.999.999 0 0 1-.25-1.39.996.996 0 0 1 1.39-.261zm2.46 1.521c.49.259.67.87.4 1.351a.987.987 0 0 1-.88.529.912.912 0 0 1-.47-.13.996.996 0 1 1 .95-1.75zm2.61 1.25c.51.21.75.799.54 1.311a.997.997 0 0 1-.92.609c-.13 0-.26-.018-.39-.069a.996.996 0 0 1-.53-1.311c.21-.51.79-.75 1.3-.54zm2.73.98c.53.149.83.71.67 1.239-.13.431-.53.711-.96.711-.09 0-.19-.011-.29-.039a1.013 1.013 0 0 1-.67-1.251c.16-.52.72-.82 1.25-.66zm2.81.68c.54.099.9.631.8 1.17-.1.481-.52.811-.99.811-.06 0-.12 0-.18-.011a1.001 1.001 0 1 1 .37-1.97zm2.87.389a1.002 1.002 0 1 1-.09 2c-.02 0-.05 0-.08-.01v.01a1 1 0 0 1-.91-1.09c.04-.55.53-.96 1.08-.91zm2.89.091c.55-.011 1.01.43 1.02.979a.999.999 0 0 1-.98 1.022h-.02a1 1 0 0 1-.02-2.001zm2.89-.2a.987.987 0 0 1 1.11.87c.07.55-.32 1.051-.87 1.12v-.011c-.04.011-.08.011-.12.011-.5 0-.93-.369-.99-.881a.997.997 0 0 1 .87-1.109zm2.85-.5c.54-.12 1.07.21 1.2.75.12.54-.22 1.08-.75 1.201-.08.019-.15.019-.23.019-.45 0-.87-.31-.97-.77a.992.992 0 0 1 .75-1.2zm2.781-.79a.993.993 0 0 1 1.27.62c.18.52-.1 1.09-.62 1.27-.11.03-.22.051-.33.051a.998.998 0 0 1-.32-1.941zm2.689-1.08a.981.981 0 0 1 1.32.479.993.993 0 0 1-.9 1.421.995.995 0 0 1-.91-.58.986.986 0 0 1 .49-1.32zm2.55-1.36c.48-.28 1.09-.121 1.37.349a.996.996 0 0 1-.85 1.511.98.98 0 0 1-.86-.49.996.996 0 0 1 .34-1.37zm3.81-1.401a.996.996 0 0 1-.8 1.59.955.955 0 0 1-.8-.401.997.997 0 1 1 1.6-1.189zm.83-2.051a.988.988 0 0 1 1.41.061.998.998 0 0 1-.06 1.411c-.19.169-.43.259-.67.259a1 1 0 0 1-.68-1.74v.009zm3.44-2.159c.41.369.45 1 .08 1.409a.975.975 0 0 1-.75.341.996.996 0 0 1-.74-1.66.996.996 0 0 1 1.41-.09zm.39-2.181c.32-.439.95-.55 1.4-.229a1.005 1.005 0 0 1-.59 1.818c-.2 0-.4-.058-.58-.188-.45-.321-.55-.95-.23-1.401zm1.57-2.43h-.01c.28-.481.89-.651 1.37-.38a1.002 1.002 0 0 1-.99 1.74.988.988 0 0 1-.37-1.36zm1.3-2.59c.22-.501.81-.732 1.32-.511.5.221.73.81.51 1.319-.17.372-.53.602-.92.602-.13 0-.27-.03-.4-.091a.988.988 0 0 1-.51-1.319zm1.03-2.702a.989.989 0 0 1 1.25-.651c.53.171.82.732.65 1.262-.14.419-.53.69-.95.69-.1 0-.21-.011-.31-.041-.52-.17-.81-.74-.64-1.26zm1.51-1.62a.987.987 0 0 1-.77-1.179.986.986 0 0 1 1.18-.771c.54.111.89.64.77 1.182a.983.983 0 0 1-.97.789c-.07 0-.14 0-.21-.021zm.56-2.939a1 1 0 0 1 .21-1.991c.55.05.95.55.89 1.091-.05.519-.49.9-.99.9h-.11z" id="path-1" class="cls-2" fill-rule="evenodd"/></svg>