<svg xmlns="http://www.w3.org/2000/svg" preserveAspectRatio="xMidYMid" width="60" height="60" viewBox="0 0 60 60"><defs><style>.cls-2{fill:#ffc000}</style></defs><path d="M59 7.999a1 1 0 0 0 1-1.001V.999a1 1 0 0 0-1-1.001h-6a1 1 0 0 0-1 1.001v5.585L32.019 26.566a3.958 3.958 0 0 0-1.041-.431C30.531 13.588 20.411 3.468 7.865 3.021 7.425 1.289 5.866-.002 4-.002c-2.206 0-4 1.795-4 4.001 0 2.205 1.794 4 4 4 1.85 0 3.396-1.27 3.851-2.979 11.455.439 20.689 9.672 21.127 21.127-1.709.456-2.978 2-2.978 3.851 0 .741.216 1.425.567 2.02L6.586 51.999H1a1 1 0 0 0-1 1v5.999a1 1 0 0 0 1 1.001h6a1 1 0 0 0 1-1.001v-5.585l19.981-19.982a3.94 3.94 0 0 0 1.831.548L26.528 51.76a1 1 0 0 0 1.702.877l5.355-5.538a23.993 23.993 0 0 0 18.549 9.873c.437 1.735 1.997 3.027 3.866 3.027 2.206 0 4-1.795 4-4 0-2.206-1.794-4-4-4-1.849 0-3.394 1.267-3.85 2.974a21.993 21.993 0 0 1-16.584-8.552l7.67 2.196a1 1 0 1 0 1.036-1.611L32.446 33.14c.938-.732 1.554-1.861 1.554-3.142a3.95 3.95 0 0 0-.567-2.018L53.414 7.999H59zM4 5.998a2.001 2.001 0 0 1 0-4 2.001 2.001 0 0 1 0 4zm52 48.001c1.103 0 2 .897 2 2s-.897 2-2 2-2-.897-2-2 .897-2 2-2zM54 1.998h4v4h-4v-4zM30 27.999c1.103 0 2 .897 2 1.999a2.002 2.002 0 0 1-3.411 1.417l-.002-.004-.003-.001A1.997 1.997 0 0 1 30 27.999zm-24 30H2v-4h4v4zm28.5-13.962a1 1 0 0 0-.994.267l-4.41 4.561 2.515-13.618 8.987 10.536-6.098-1.746z" id="path-1" class="cls-2" fill-rule="evenodd"/></svg>