<svg xmlns="http://www.w3.org/2000/svg" preserveAspectRatio="xMidYMid" width="55" height="53" viewBox="0 0 55 53"><defs><style>.cls-2{fill:#ffc000}</style></defs><path d="M45.597 31.788c-.063.041-.121.083-.191.108l-.071.042 9.664 5.453L27.5 53.003.001 37.391l9.664-5.453-9.664-5.487 9.664-5.454L.001 15.51 27.5-.008 54.998 15.51l-9.664 5.487 9.664 5.454-9.401 5.337zM4.045 37.395l23.454 13.318 23.455-13.318-7.639-4.311L27.5 42.063l-15.816-8.979-7.639 4.311zm46.91-21.88L27.5 2.279 4.045 15.515l23.456 13.317 15.811-8.977 7.643-4.34zm-7.64 6.628l-.321.182a.99.99 0 0 1-.938.691c-.072 0-.136-.027-.204-.042l-2.204 1.252a.97.97 0 0 1 .406.778.998.998 0 0 1-1.001.995.987.987 0 0 1-.978-.88l-10.06 5.711c.008.049.029.092.029.143a.997.997 0 0 1-1 .994.997.997 0 0 1-1.001-.994c0-.214.082-.402.198-.564l-10.338-5.87a.963.963 0 0 1 .132.467.999.999 0 0 1-1.001.994.998.998 0 0 1-1.001-.994c0-.534.424-.962.955-.987l-2.264-1.284a.995.995 0 0 1-.693.282.996.996 0 0 1-.892-.564l-7.095 4.004 1.36.771a.984.984 0 0 1 .622-.234c.552 0 1 .445 1 .995 0 .051-.022.094-.029.144l10.063 5.711a.987.987 0 0 1 .977-.882.997.997 0 0 1 1.001.994.974.974 0 0 1-.407.78l2.203 1.251c.068-.016.133-.043.206-.043.445 0 .809.293.939.693l5.522 3.134 4.594-2.607c-.018-.075-.046-.145-.046-.225a.998.998 0 0 1 1.695-.713l2.265-1.285a.993.993 0 0 1-.958-.986.997.997 0 0 1 1.001-.994.998.998 0 0 1 1.001.994.956.956 0 0 1-.134.469l6.393-3.63 3.948-2.241a.965.965 0 0 1-.199-.565.998.998 0 0 1 1.909-.407l1.985-1.126-7.64-4.312zM45.058 26a.998.998 0 0 1-1.001-.994.998.998 0 0 1 1.001-.995.998.998 0 0 1 1.001.995.998.998 0 0 1-1.001.994zm-3.002 2.984a.998.998 0 0 1-1.001-.995c0-.55.448-.995 1.001-.995.552 0 1 .445 1 .995a.998.998 0 0 1-1 .995zm-3.003 2.983a.997.997 0 0 1-1.001-.994.998.998 0 0 1 1.001-.995.998.998 0 0 1 1.001.995.997.997 0 0 1-1.001.994zm-3.002-2.983a.998.998 0 0 1-1.001-.995c0-.55.448-.995 1.001-.995a.998.998 0 0 1 1.001.995.998.998 0 0 1-1.001.995zm-3.003 2.983c-.552 0-1-.445-1-.994a.998.998 0 0 1 1-.995.998.998 0 0 1 1.001.995.997.997 0 0 1-1.001.994zm-3.002 2.984a.998.998 0 0 1-1.001-.995.997.997 0 0 1 1.001-.994.997.997 0 0 1 1.001.994c0 .55-.448.995-1.001.995zm-3.002 2.984a.998.998 0 0 1-1.001-.995.998.998 0 0 1 1.001-.995c.552 0 1 .446 1 .995a.998.998 0 0 1-1 .995zm-3.003-2.984a.998.998 0 0 1-1.001-.995.997.997 0 0 1 1.001-.994.997.997 0 0 1 1.001.994c0 .55-.448.995-1.001.995zm-3.002-2.984a.997.997 0 0 1-1.001-.994.998.998 0 0 1 1.001-.995.999.999 0 0 1 1.001.995.998.998 0 0 1-1.001.994zm-3.003-2.983a.999.999 0 0 1-1.001-.995c0-.55.449-.995 1.001-.995a.998.998 0 0 1 1.001.995.998.998 0 0 1-1.001.995zm-3.002 2.983a.997.997 0 0 1-1.001-.994.998.998 0 0 1 1.001-.995.998.998 0 0 1 1.001.995.997.997 0 0 1-1.001.994zm-3.003-2.983c-.552 0-1-.446-1-.995 0-.55.448-.995 1-.995a.998.998 0 0 1 1.001.995.998.998 0 0 1-1.001.995zM9.029 26a.998.998 0 0 1-1.001-.994.998.998 0 0 1 1.001-.995.998.998 0 0 1 1.001.995.998.998 0 0 1-1.001.994z" id="path-1" class="cls-2" fill-rule="evenodd"/></svg>