<svg xmlns="http://www.w3.org/2000/svg" preserveAspectRatio="xMidYMid" width="36" height="60" viewBox="0 0 36 60"><defs><style>.cls-2{fill:#ffc000}</style></defs><path d="M31.319 59.999H4.682A4.689 4.689 0 0 1 0 55.316V4.681A4.688 4.688 0 0 1 4.682-.002h26.636A4.688 4.688 0 0 1 36 4.681v50.635a4.689 4.689 0 0 1-4.681 4.683zM34 4.681a2.685 2.685 0 0 0-2.681-2.683H4.682A2.685 2.685 0 0 0 2 4.681v1.317h32V4.681zm0 3.317H2v44.001h32V7.998zm0 46.001H2v1.317a2.685 2.685 0 0 0 2.682 2.683h26.636A2.685 2.685 0 0 0 34 55.316v-1.317zm-9.29 2.709c-.19.181-.45.29-.71.29-.26 0-.521-.109-.71-.29a1.026 1.026 0 0 1-.29-.71c0-.26.109-.52.29-.71.37-.37 1.05-.37 1.42.01.18.18.29.44.29.7 0 .261-.11.521-.29.71zm-3 0c-.19.181-.45.29-.71.29-.26 0-.521-.109-.71-.29a1.043 1.043 0 0 1-.29-.71c0-.26.109-.52.29-.71.38-.37 1.04-.37 1.42 0a1.011 1.011 0 0 1 0 1.42zm-3 0c-.19.181-.45.29-.71.29-.271 0-.521-.109-.71-.29a1.043 1.043 0 0 1-.29-.71c0-.26.109-.52.29-.71.37-.37 1.05-.37 1.42 0 .18.19.29.45.29.71 0 .261-.11.521-.29.71zm-3 0c-.19.181-.45.29-.71.29-.271 0-.521-.109-.71-.29a1.026 1.026 0 0 1-.29-.71c0-.26.109-.52.29-.71.37-.37 1.04-.37 1.42 0a1.011 1.011 0 0 1 0 1.42zm-3 0c-.19.181-.45.29-.71.29-.26 0-.521-.109-.71-.29a1.043 1.043 0 0 1-.29-.71c0-.26.109-.52.29-.71.37-.37 1.05-.37 1.42 0 .18.19.29.44.29.71 0 .261-.11.521-.29.71zM3.293 13.291l4-4a1 1 0 0 1 1.414 1.415l-4 4a1 1 0 0 1-1.414-1.415zm0 5.001l2-2a.999.999 0 1 1 1.414 1.414l-2 1.999a.998.998 0 1 1-1.414-1.413zm0 5l9-9.001a1 1 0 1 1 1.414 1.415l-9 8.999a.998.998 0 1 1-1.414-1.413zM14.29 12.288c.37-.37 1.04-.37 1.42 0a1.013 1.013 0 0 1 0 1.421c-.19.179-.45.289-.71.289-.26 0-.521-.11-.71-.289a1.05 1.05 0 0 1-.29-.711c0-.271.109-.52.29-.71zm2.003-1.996l1-1.001a1 1 0 0 1 1.414 1.415l-1 1a1 1 0 0 1-1.414-1.414zM8.71 15.709c-.19.179-.45.289-.71.289-.26 0-.521-.11-.71-.289a1.05 1.05 0 0 1-.29-.711c0-.27.109-.52.29-.71.37-.37 1.04-.37 1.42 0 .18.19.29.45.29.71 0 .26-.11.521-.29.711zm4.997-5.003l-3 2.999a.997.997 0 0 1-1.414 0 .999.999 0 0 1 0-1.414l3-3a1 1 0 0 1 1.414 1.415zM3.29 3.288c.37-.369 1.04-.369 1.42 0 .18.19.29.45.29.71 0 .261-.11.52-.29.71-.19.18-.45.289-.71.289-.271 0-.521-.109-.71-.289a1.026 1.026 0 0 1-.29-.71c0-.271.109-.52.29-.71zm8 0a1.05 1.05 0 0 1 1.42 0c.18.19.29.45.29.71 0 .261-.11.52-.29.71-.19.18-.45.289-.71.289-.26 0-.521-.109-.71-.289a1.045 1.045 0 0 1-.29-.71c0-.26.109-.52.29-.71zm3 0c.37-.369 1.04-.369 1.42 0a1.011 1.011 0 0 1 0 1.42c-.19.18-.45.289-.71.289-.26 0-.521-.109-.71-.289a1.045 1.045 0 0 1-.29-.71c0-.26.109-.52.29-.71zm3 0c.359-.369 1.05-.369 1.42 0 .18.19.29.45.29.71 0 .261-.11.52-.29.71-.19.19-.45.289-.71.289-.26 0-.521-.099-.71-.289a1.045 1.045 0 0 1-.29-.71c0-.271.109-.52.29-.71zm3 0c.37-.369 1.04-.369 1.42 0 .18.19.29.45.29.71 0 .261-.101.52-.29.71-.19.18-.45.289-.71.289-.26 0-.521-.109-.71-.289a1.045 1.045 0 0 1-.29-.71c0-.26.109-.52.29-.71zm3 0c.38-.369 1.05-.369 1.42 0 .18.19.29.45.29.71 0 .261-.11.52-.29.71-.19.18-.45.289-.71.289-.26 0-.521-.109-.71-.289a1.045 1.045 0 0 1-.29-.71c0-.271.109-.52.29-.71zm8 0c.37-.369 1.05-.369 1.42 0 .18.19.29.45.29.71 0 .261-.11.52-.29.71-.19.18-.44.289-.71.289-.271 0-.521-.109-.71-.289a1.045 1.045 0 0 1-.29-.71c0-.26.109-.52.29-.71z" id="path-1" class="cls-2" fill-rule="evenodd"/></svg>