<svg xmlns="http://www.w3.org/2000/svg" preserveAspectRatio="xMidYMid" width="46" height="60" viewBox="0 0 46 60"><defs><style>.cls-2{fill:#ffc000}</style></defs><path d="M33.454 54.489c-3.167 2.485-6.588 4.282-10.169 5.344a1.028 1.028 0 0 1-.57 0c-3.581-1.061-7.002-2.859-10.169-5.344C4.69 48.326 0 38.426 0 28.01V8.954a1 1 0 0 1 1-.999c14.695 0 21.168-7.553 21.232-7.628.38-.455 1.155-.455 1.535-.001C23.86.435 30.404 7.957 45 7.957c.552 0 1 .446 1 .998V28.01c0 10.416-4.69 20.314-12.546 26.479zM44 9.942C31.758 9.67 25.135 4.454 23 2.409 20.865 4.453 14.242 9.67 2 9.942V28.01c0 9.809 4.404 19.122 11.782 24.911 2.883 2.262 5.983 3.915 9.218 4.913 3.235-.999 6.335-2.651 9.218-4.913C39.596 47.131 44 37.819 44 28.01V9.942zM29.747 49.781c-2.024 1.588-4.172 2.832-6.382 3.698a1.019 1.019 0 0 1-.365.069c-.124 0-.247-.024-.365-.069-2.212-.867-4.359-2.112-6.381-3.698C9.833 44.743 6 36.605 6 28.011V14.575a1 1 0 0 1 .874-.991c7.401-.942 12.549-3.578 15.564-5.624.339-.23.785-.23 1.124 0 3.015 2.046 8.163 4.682 15.564 5.624a1 1 0 0 1 .874.991v13.436c0 8.594-3.833 16.732-10.253 21.77zM38 15.445c-6.899-1.02-11.875-3.441-15-5.462-3.125 2.021-8.101 4.442-15 5.462V28.01c0 7.986 3.548 15.537 9.49 20.2 1.757 1.379 3.609 2.474 5.51 3.261 1.901-.786 3.753-1.882 5.511-3.261C34.453 43.548 38 35.997 38 28.01V15.445zM21.033 38.908H21c-.265 0-.519-.105-.707-.292l-8-7.988a1 1 0 0 1 1.414-1.413l7.244 7.234 13.296-15.172a1.001 1.001 0 0 1 1.411-.093.996.996 0 0 1 .094 1.408l-14 15.976a.998.998 0 0 1-.719.34z" id="path-1" class="cls-2" fill-rule="evenodd"/></svg>